<svg width="1000" height="300" viewBox="0 0 1000 300" fill="none" xmlns="http://www.w3.org/2000/svg">
<rect width="1000" height="300" fill="#111827"/>
<path d="M373.011 105.531L328.234 159.263H368.533L364.056 195.085L408.832 141.352H368.533L373.011 105.531Z" fill="white"/>
<path d="M472.224 142.98V159.555H448.316V182.258H429.531V114.953H477.247V131.528H448.316V142.98H472.224Z" fill="white"/>
<path d="M503.451 114.953V182.258H486.172V114.953H503.451Z" fill="white"/>
<path d="M531.956 129.523C534.635 129.523 537.247 130.126 539.791 131.332C542.404 132.47 544.546 133.943 546.221 135.752V131.03H563.5V182.262H546.221V173.723C544.949 176.536 543.007 178.913 540.395 180.855C537.783 182.798 534.635 183.769 530.952 183.769C527.135 183.769 523.551 182.798 520.203 180.855C516.855 178.913 514.108 175.933 511.966 171.915C509.89 167.83 508.852 162.707 508.852 156.546C508.852 150.786 509.89 145.898 511.966 141.879C514.108 137.861 516.922 134.814 520.404 132.738C523.954 130.595 527.804 129.523 531.956 129.523ZM535.573 146.4C533.095 146.4 531.019 147.404 529.345 149.413C527.737 151.423 526.934 153.8 526.934 156.546C526.934 159.291 527.77 161.602 529.445 163.477C531.119 165.353 533.33 166.29 536.075 166.29C537.548 166.29 539.055 165.922 540.596 165.185C542.135 164.381 543.442 163.209 544.513 161.669C545.652 160.061 546.221 158.019 546.221 155.541V150.619C544.748 149.413 543.073 148.409 541.198 147.605C539.39 146.802 537.514 146.4 535.573 146.4Z" fill="white"/>
<path d="M590.303 129.523C593.652 129.523 596.732 130.026 599.545 131.03C602.424 131.968 604.735 133.274 606.476 134.948V148.509C604.735 147.438 602.759 146.433 600.55 145.496C598.34 144.491 595.962 143.989 593.417 143.989C591.81 143.989 590.37 144.324 589.098 144.993C587.892 145.596 587.29 146.567 587.29 147.907C587.29 148.844 587.658 149.547 588.394 150.016C589.131 150.485 590.571 150.987 592.714 151.523L595.828 152.327C604.735 154.604 609.188 159.392 609.188 166.691C609.188 170.04 608.184 173.02 606.175 175.632C604.233 178.177 601.655 180.186 598.44 181.66C595.292 183.066 591.877 183.769 588.193 183.769C584.377 183.769 580.827 183.233 577.546 182.162C574.264 181.023 571.451 179.65 569.107 178.043V164.582C571.518 166.055 574.23 167.294 577.244 168.299C580.325 169.303 583.07 169.806 585.481 169.806C587.424 169.806 588.83 169.571 589.7 169.102C590.638 168.634 591.106 167.797 591.106 166.591C591.106 165.654 590.571 164.95 589.5 164.481C588.428 163.946 586.888 163.343 584.879 162.674L579.756 161.066C576.005 159.927 573.259 158.153 571.518 155.742C569.777 153.264 568.906 150.251 568.906 146.701C568.906 143.152 569.843 140.105 571.719 137.56C573.594 135.015 576.139 133.039 579.353 131.633C582.635 130.227 586.285 129.523 590.303 129.523Z" fill="white"/>
<path d="M644.83 129.519C650.053 129.519 654.306 131.294 657.587 134.843C660.935 138.393 662.61 143.65 662.61 150.615V182.258H645.332L645.232 153.327C645.232 150.782 644.528 149.007 643.122 148.003C641.715 146.931 640.142 146.395 638.401 146.395C636.525 146.395 634.951 146.898 633.679 147.902C632.407 148.84 631.302 149.978 630.364 151.318V182.258H613.086V114.953H630.364V137.656C631.971 135.446 633.914 133.537 636.191 131.93C638.535 130.323 641.414 129.519 644.83 129.519Z" fill="white"/>
<path d="M661.737 115.344V117.481H659.164V123.984H656.721V117.481H654.148V115.344H661.737Z" fill="white"/>
<path d="M671.766 115.219V124.027H669.323V119.753L667.534 121.76H666.802L665.013 119.753V124.027H662.57V115.219H663.433L667.168 118.975L670.903 115.219H671.766Z" fill="white"/>
</svg>
